<svg width="24" height="24" viewBox="0 0 24 24" fill="none" xmlns="http://www.w3.org/2000/svg">
<path d="M19.9 5.0001L13.9 1.5001C12.7 0.800098 11.2 0.800098 10 1.5001L4.1 5.0001C2.8 5.7001 2 7.2001 2 8.7001V15.3001C2 16.8001 2.8 18.3001 4.1 19.0001L10.1 22.5001C10.7 22.8001 11.3 23.0001 12 23.0001C12.7 23.0001 13.3 22.8001 13.9 22.5001L19.9 19.0001C21.2 18.3001 22 16.8001 22 15.3001V8.7001C22 7.2001 21.2 5.7001 19.9 5.0001Z" fill="#0066FF"/>
<path d="M19.8999 7.60004C19.5999 7.20004 18.9999 7.00004 18.4999 7.20004L11.9999 10.8L5.49994 7.20004C4.99994 7.00004 4.39994 7.20004 4.09994 7.60004C3.79994 8.00004 3.99994 8.70004 4.49994 9.00004L10.9999 12.5V19.8C10.9999 20.4 11.3999 20.8 11.9999 20.8C12.5999 20.8 12.9999 20.4 12.9999 19.8V12.5L19.4999 9.00004C19.9999 8.70004 20.0999 8.10004 19.8999 7.60004Z" fill="white"/>
</svg>
