<svg width="208" height="64" viewBox="0 0 208 64" fill="none" xmlns="http://www.w3.org/2000/svg">
<path fill-rule="evenodd" clip-rule="evenodd" d="M132.684 0.000677647H168.527L166.83 7.34433H130.99L132.684 0.000677647ZM127.766 21.3537H163.608L161.911 28.6973H126.072L127.766 21.3537ZM166.06 10.6773H130.218L128.524 18.021H164.363L166.06 10.6773ZM195.393 21.5824H179.233L170.471 28.6973H165.271L171.897 0.000677647H179.254L175.524 16.1487L177.886 14.2306H197.089L200.376 0H207.731L201.106 28.6973H193.75L195.393 21.5824ZM99.4743 14.2309L97.112 16.149L97.9998 12.3132L104.109 7.35179H120.282L118.692 14.2309H99.4743ZM115.338 28.6973H122.695L123.754 24.1036L126.212 13.4343L129.306 0.000677647H102.761L91.3466 9.26919L86.8606 28.6973H92.0609L100.823 21.5824H116.982L115.338 28.6973ZM22.4259 21.5824H38.5851L40.2819 14.2309H21.0787L18.7476 16.1239L20.725 7.45547L20.748 7.35179H49.2268L50.9237 0.000677647H22.4462H15.0897L8.46367 28.6973H12.1717H13.6639L22.4259 21.5824ZM61.6183 0.00169412L56.6809 21.3564H85.2194L83.49 28.6973H54.9828H47.656L54.2834 0.000677647L61.6183 0.00169412ZM87.6927 56.6481H108.831L110.917 47.6155L107.098 42.6541H90.9387L89.4356 49.1439L89.1226 50.4866L87.6927 56.6481ZM78.6678 63.9996L82.0547 49.3055L82.2586 48.4196C83.264 44.0505 84.2698 39.6801 85.2803 35.3023H111.841L118.974 44.5708L114.487 63.9989L78.6678 63.9996ZM155.354 56.6481H128.253L132.344 53.3277L141.777 53.3348L143.474 45.9833L130.997 45.9759L135.086 42.6547H158.587L160.284 35.303H133.739L122.325 44.5715L117.837 63.9996H153.656L155.354 56.6481ZM49.6605 51.6868L53.4797 56.6485H69.6375L71.7233 47.6158L67.9041 42.6544H51.7463L49.6605 51.6868ZM48.7348 63.9993L41.6019 54.7311L46.0879 35.3026H72.6476L79.7819 44.5711L75.2945 63.9993H48.7348ZM32.5174 47.6155L28.8527 63.9996H36.2078L40.576 44.5715L33.4417 35.303H31.9197H6.89692L0.269531 63.9996H7.59625L12.5254 42.6541H28.6982L32.5174 47.6155ZM163.656 35.303H199.498L197.801 42.6466H161.961L163.656 35.303ZM158.737 56.6559H194.579L192.882 63.9996H157.043L158.737 56.6559ZM197.031 45.9796H161.189L159.495 53.3233H195.334L197.031 45.9796Z" fill="white"/>
</svg>
