<svg width="32" height="32" viewBox="0 0 32 32" fill="none" xmlns="http://www.w3.org/2000/svg">
<path d="M30.6668 13.1798V25.3269C30.6668 28.2636 28.2668 30.6663 25.3335 30.6663H6.66683C3.7335 30.6663 1.3335 28.2636 1.3335 25.3269V13.1798C1.3335 10.7771 2.5335 8.64131 4.66683 7.43995L14.1335 1.83358C15.3335 1.16615 16.8002 1.16615 18.0002 1.83358L27.4668 7.43995C29.4668 8.50783 30.6668 10.7771 30.6668 13.1798Z" fill="white"/>
<path d="M15.9715 19.9997C15.2064 19.9997 14.3137 19.7454 13.6761 19.3641L7.29977 15.6776C6.66214 15.2963 6.53461 14.5336 6.78966 13.898C7.04471 13.3895 7.9374 13.1353 8.4475 13.5166L14.8238 17.2031C15.4614 17.5844 16.3541 17.5844 16.9917 17.2031L23.3681 13.5166C24.0057 13.1353 24.7708 13.3895 25.1534 14.0251C25.536 14.6607 25.2809 15.4234 24.6433 15.8048L18.267 19.4912C17.6294 19.7454 16.7367 19.9997 15.9715 19.9997Z" fill="#0066FF"/>
</svg>
