<svg width="66" height="66" viewBox="0 0 66 66" fill="none" xmlns="http://www.w3.org/2000/svg">
<path d="M0 33C0 14.7746 14.7746 0 33 0C51.2254 0 66 14.7746 66 33C66 51.2254 51.2254 66 33 66C14.7746 66 0 51.2254 0 33Z" fill="#FAFAFA"/>
<path d="M33 23C27.5 23 23 27.5 23 33C23 38.5 27.5 43 33 43C38.5 43 43 38.5 43 33C43 27.5 38.5 23 33 23ZM37 35.6C37.4 36 37.4 36.6 37 37C36.8 37.2 36.6 37.3 36.3 37.3C36 37.3 35.8 37.2 35.6 37L33 34.4L30.4 37C30.2 37.2 29.9 37.3 29.7 37.3C29.4 37.3 29.2 37.2 29 37C28.6 36.6 28.6 36 29 35.6L31.6 33L29 30.4C28.6 30 28.6 29.4 29 29C29.4 28.6 30 28.6 30.4 29L33 31.6L35.6 29C36 28.6 36.6 28.6 37 29C37.4 29.4 37.4 30 37 30.4L34.4 33L37 35.6Z" fill="#000814"/>
</svg>
