<svg width="20" height="20" viewBox="0 0 20 20" fill="none" xmlns="http://www.w3.org/2000/svg">
<path d="M20 9.17517C19.5835 4.26236 15.5855 0.348767 10.6712 0.015695C7.67263 -0.150841 4.75737 1.01491 2.75833 3.17988C0.676007 5.34484 -0.32351 8.34249 0.0929555 11.2569C0.676007 15.6701 4.25761 19.3339 8.75543 19.9167C9.1719 20 9.58837 20 10.0048 20C11.754 20 13.5031 19.5837 15.0024 18.6677C15.8353 18.1681 16.0852 17.1689 15.5855 16.4195C15.0857 15.5868 14.0862 15.337 13.3366 15.8366C12.0872 16.586 10.5879 16.8358 9.1719 16.6693C6.17335 16.3362 3.75785 13.9214 3.42468 10.9238C3.1748 8.92536 3.84114 6.92693 5.17383 5.51138C6.50652 4.09582 8.50556 3.26314 10.5046 3.42968C13.753 3.59622 16.4184 6.26079 16.7516 9.50824C16.7516 10.0078 16.7516 10.4242 16.7516 10.9238C16.6683 11.2569 16.3351 11.5899 15.8353 11.5899C15.3356 11.5899 15.0024 11.1736 15.0024 10.7573V10.0078C15.0024 7.34327 12.8368 5.17831 10.1714 5.17831C7.50604 5.17831 5.17383 7.34327 5.17383 10.0078C5.17383 12.6724 7.33945 14.8374 10.0048 14.8374C11.1709 14.8374 12.1705 14.421 13.0034 13.8382C13.753 14.5043 14.6692 14.8374 15.6688 14.8374C15.6688 14.8374 15.7521 14.8374 15.8353 14.8374C17.9177 14.8374 19.6668 13.3386 20 11.2569C20 10.5907 20 9.92458 20 9.17517ZM10.0048 11.5067C9.1719 11.5067 8.50556 10.8405 8.50556 10.0078C8.50556 9.17517 9.1719 8.50902 10.0048 8.50902C10.8378 8.50902 11.5041 9.17517 11.5041 10.0078C11.5041 10.8405 10.8378 11.5067 10.0048 11.5067Z" fill="#0066FF"/>
</svg>
